<svg id="Capa_1" enable-background="new 0 0 512 512" height="512" viewBox="0 0 512 512" width="512" xmlns="http://www.w3.org/2000/svg"><g><path d="m275 512c-8.284 0-15-6.716-15-15v-65c0-8.284 6.716-15 15-15s15 6.716 15 15v65c0 8.284-6.716 15-15 15z" fill="#eb9100"/><path d="m215 512c-8.284 0-15-6.716-15-15v-62c0-8.284 6.716-15 15-15s15 6.716 15 15v62c0 8.284-6.716 15-15 15z" fill="#f0aa00"/><path d="m305 512h-120c-8.284 0-15-6.716-15-15s6.716-15 15-15h120c8.284 0 15 6.716 15 15s-6.716 15-15 15z" fill="#ffd232"/><path d="m305 482h-49v30h49c8.284 0 15-6.716 15-15s-6.716-15-15-15z" fill="#f0aa00"/><path d="m497 220h-136.659c-4.566 0-8.884-2.08-11.729-5.65-2.847-3.57-3.911-8.243-2.893-12.694l27.293-119.325c1.691-7.396 8.638-12.362 16.184-11.574 33.072 3.462 63.874 18.904 86.73 43.482 23.263 25.014 36.074 57.247 36.074 90.761 0 8.284-6.716 15-15 15z" fill="#ffd232"/><path d="m459 220h-117.871l34.582-149.325h11.923c19.108 0 37.414 15.918 51.546 44.822 12.596 25.763 19.82 58.385 19.82 89.503z" fill="#465a64"/><path d="m245 450c-52.694 0-93.914-4.464-126.018-13.646-65.235-18.66-78.956-54.503-78.979-81.286-.005-5.212 2.697-10.053 7.135-12.786l214.108-131.842c2.365-1.457 5.088-2.228 7.865-2.228h65.23c3.3 0 6.507 1.088 9.126 3.095 29.573 22.67 46.533 56.819 46.533 93.693 0 79.953-65.047 145-145 145z" fill="#c6def0"/><path d="m343.468 211.308c-2.619-2.007-5.826-3.095-9.126-3.095h-65.23c-2.777 0-5.5.771-7.865 2.228l-5.247 3.229v235.915c74.834-5.64 134-68.333 134-144.585 0-36.874-16.96-71.023-46.532-93.692z" fill="#a0c8e6"/><path d="m145.182 399.942c-57.071 0-112.644-29.592-143.172-82.467-1.989-3.445-2.528-7.54-1.499-11.382 1.03-3.843 3.544-7.119 6.989-9.108l189.963-109.675c3.906-2.256 8.621-2.634 12.838-1.028l89.836 34.206c5.807 2.211 9.648 7.772 9.662 13.986.062 28.544-7.285 56.764-21.246 81.608-14.41 25.645-35.555 47.01-61.148 61.787-25.917 14.963-54.252 22.073-82.223 22.073z" fill="#647882"/><path d="m300.137 220.488-44.137-16.805v153.259c12.923-11.771 23.947-25.544 32.553-40.859 13.961-24.844 21.308-53.064 21.246-81.608-.014-6.215-3.855-11.776-9.662-13.987z" fill="#465a64"/><path d="m285 250c-68.925 0-125-56.075-125-125s56.075-125 125-125 125 56.075 125 125-56.075 125-125 125z" fill="#e4eff8"/><path d="m285 0c-9.981 0-19.689 1.183-29 3.403v243.193c9.311 2.22 19.019 3.403 29 3.403 68.925 0 125-56.075 125-125s-56.075-124.999-125-124.999z" fill="#c6def0"/><circle cx="320" cy="111" fill="#465a64" r="15"/></g></svg>